<?xml version="1.0" encoding="UTF-8"?>
<!--Generator: Apple Native CoreSVG 341-->
<!DOCTYPE svg
PUBLIC "-//W3C//DTD SVG 1.1//EN"
       "http://www.w3.org/Graphics/SVG/1.1/DTD/svg11.dtd">
<svg version="1.1" xmlns="http://www.w3.org/2000/svg" xmlns:xlink="http://www.w3.org/1999/xlink" viewBox="0 0 15.6738 14.248">
 <g>
  <rect height="14.248" opacity="0" width="15.6738" x="0" y="0"/>
  <path d="M2.49023 14.248L12.8223 14.248C14.4922 14.248 15.3125 13.4277 15.3125 11.7871L15.3125 2.4707C15.3125 0.830078 14.4922 0.00976562 12.8223 0.00976562L2.49023 0.00976562C0.830078 0.00976562 0 0.830078 0 2.4707L0 11.7871C0 13.4277 0.830078 14.248 2.49023 14.248ZM2.35352 12.832C1.74805 12.832 1.40625 12.5098 1.40625 11.875L1.40625 4.53125C1.40625 3.89648 1.74805 3.57422 2.35352 3.57422L12.9492 3.57422C13.5547 3.57422 13.9062 3.89648 13.9062 4.53125L13.9062 11.875C13.9062 12.5098 13.5547 12.832 12.9492 12.832Z" fill="black" fill-opacity="0.85"/>
  <path d="M5.92773 11.3867C6.25977 11.3867 6.54297 11.1035 6.54297 10.752L6.54297 5.71289C6.54297 5.25391 6.26953 5 5.82031 5C5.45898 5 5.16602 5.20508 4.9707 5.35156L4.17969 5.95703C4.0332 6.06445 3.90625 6.24023 3.90625 6.46484C3.90625 6.72852 4.0918 6.91406 4.3457 6.91406C4.47266 6.91406 4.56055 6.875 4.64844 6.80664L5.29297 6.28906L5.29297 10.752C5.29297 11.1035 5.57617 11.3867 5.92773 11.3867ZM8.82812 11.4062C9.14062 11.4062 9.28711 11.2793 9.39453 10.9766L11.084 6.48438C11.1816 6.2207 11.25 6.01562 11.25 5.76172C11.25 5.37109 10.9473 5.11719 10.5762 5.11719L8.11523 5.11719C7.82227 5.11719 7.62695 5.32227 7.62695 5.61523C7.62695 5.9082 7.82227 6.12305 8.11523 6.12305L9.99023 6.12305L9.99023 6.19141L8.36914 10.3809C8.29102 10.5762 8.26172 10.6738 8.26172 10.8789C8.26172 11.123 8.41797 11.4062 8.82812 11.4062Z" fill="black" fill-opacity="0.85"/>
 </g>
</svg>
