<?xml version="1.0" encoding="UTF-8"?>
<!--Generator: Apple Native CoreSVG 341-->
<!DOCTYPE svg
PUBLIC "-//W3C//DTD SVG 1.1//EN"
       "http://www.w3.org/Graphics/SVG/1.1/DTD/svg11.dtd">
<svg version="1.1" xmlns="http://www.w3.org/2000/svg" xmlns:xlink="http://www.w3.org/1999/xlink" viewBox="0 0 15.6738 14.248">
 <g>
  <rect height="14.248" opacity="0" width="15.6738" x="0" y="0"/>
  <path d="M2.49023 14.248L12.8223 14.248C14.4922 14.248 15.3125 13.4277 15.3125 11.7871L15.3125 2.4707C15.3125 0.830078 14.4922 0.00976562 12.8223 0.00976562L2.49023 0.00976562C0.830078 0.00976562 0 0.830078 0 2.4707L0 11.7871C0 13.4277 0.830078 14.248 2.49023 14.248ZM2.35352 12.832C1.74805 12.832 1.40625 12.5098 1.40625 11.875L1.40625 4.53125C1.40625 3.89648 1.74805 3.57422 2.35352 3.57422L12.9492 3.57422C13.5547 3.57422 13.9062 3.89648 13.9062 4.53125L13.9062 11.875C13.9062 12.5098 13.5547 12.832 12.9492 12.832ZM6.17188 6.33789L6.62109 6.33789C6.91406 6.33789 7.01172 6.24023 7.01172 5.95703L7.01172 5.50781C7.01172 5.22461 6.91406 5.12695 6.62109 5.12695L6.17188 5.12695C5.88867 5.12695 5.79102 5.22461 5.79102 5.50781L5.79102 5.95703C5.79102 6.24023 5.88867 6.33789 6.17188 6.33789ZM8.69141 6.33789L9.14062 6.33789C9.42383 6.33789 9.52148 6.24023 9.52148 5.95703L9.52148 5.50781C9.52148 5.22461 9.42383 5.12695 9.14062 5.12695L8.69141 5.12695C8.39844 5.12695 8.30078 5.22461 8.30078 5.50781L8.30078 5.95703C8.30078 6.24023 8.39844 6.33789 8.69141 6.33789ZM11.2012 6.33789L11.6504 6.33789C11.9336 6.33789 12.041 6.24023 12.041 5.95703L12.041 5.50781C12.041 5.22461 11.9336 5.12695 11.6504 5.12695L11.2012 5.12695C10.9082 5.12695 10.8105 5.22461 10.8105 5.50781L10.8105 5.95703C10.8105 6.24023 10.9082 6.33789 11.2012 6.33789ZM3.66211 8.80859L4.11133 8.80859C4.4043 8.80859 4.50195 8.71094 4.50195 8.42773L4.50195 7.97852C4.50195 7.69531 4.4043 7.59766 4.11133 7.59766L3.66211 7.59766C3.37891 7.59766 3.27148 7.69531 3.27148 7.97852L3.27148 8.42773C3.27148 8.71094 3.37891 8.80859 3.66211 8.80859ZM6.17188 8.80859L6.62109 8.80859C6.91406 8.80859 7.01172 8.71094 7.01172 8.42773L7.01172 7.97852C7.01172 7.69531 6.91406 7.59766 6.62109 7.59766L6.17188 7.59766C5.88867 7.59766 5.79102 7.69531 5.79102 7.97852L5.79102 8.42773C5.79102 8.71094 5.88867 8.80859 6.17188 8.80859ZM8.69141 8.80859L9.14062 8.80859C9.42383 8.80859 9.52148 8.71094 9.52148 8.42773L9.52148 7.97852C9.52148 7.69531 9.42383 7.59766 9.14062 7.59766L8.69141 7.59766C8.39844 7.59766 8.30078 7.69531 8.30078 7.97852L8.30078 8.42773C8.30078 8.71094 8.39844 8.80859 8.69141 8.80859ZM11.2012 8.80859L11.6504 8.80859C11.9336 8.80859 12.041 8.71094 12.041 8.42773L12.041 7.97852C12.041 7.69531 11.9336 7.59766 11.6504 7.59766L11.2012 7.59766C10.9082 7.59766 10.8105 7.69531 10.8105 7.97852L10.8105 8.42773C10.8105 8.71094 10.9082 8.80859 11.2012 8.80859ZM3.66211 11.2793L4.11133 11.2793C4.4043 11.2793 4.50195 11.1816 4.50195 10.8984L4.50195 10.4492C4.50195 10.166 4.4043 10.0684 4.11133 10.0684L3.66211 10.0684C3.37891 10.0684 3.27148 10.166 3.27148 10.4492L3.27148 10.8984C3.27148 11.1816 3.37891 11.2793 3.66211 11.2793ZM6.17188 11.2793L6.62109 11.2793C6.91406 11.2793 7.01172 11.1816 7.01172 10.8984L7.01172 10.4492C7.01172 10.166 6.91406 10.0684 6.62109 10.0684L6.17188 10.0684C5.88867 10.0684 5.79102 10.166 5.79102 10.4492L5.79102 10.8984C5.79102 11.1816 5.88867 11.2793 6.17188 11.2793ZM8.69141 11.2793L9.14062 11.2793C9.42383 11.2793 9.52148 11.1816 9.52148 10.8984L9.52148 10.4492C9.52148 10.166 9.42383 10.0684 9.14062 10.0684L8.69141 10.0684C8.39844 10.0684 8.30078 10.166 8.30078 10.4492L8.30078 10.8984C8.30078 11.1816 8.39844 11.2793 8.69141 11.2793Z" fill="black" fill-opacity="0.85"/>
 </g>
</svg>
