<?xml version="1.0" encoding="UTF-8"?>
<!--Generator: Apple Native CoreSVG 341-->
<!DOCTYPE svg
PUBLIC "-//W3C//DTD SVG 1.1//EN"
       "http://www.w3.org/Graphics/SVG/1.1/DTD/svg11.dtd">
<svg version="1.1" xmlns="http://www.w3.org/2000/svg" xmlns:xlink="http://www.w3.org/1999/xlink" viewBox="0 0 16.1328 15.7715">
 <g>
  <rect height="15.7715" opacity="0" width="16.1328" x="0" y="0"/>
  <path d="M15.7715 7.88086C15.7715 12.2363 12.2363 15.7617 7.88086 15.7617C3.53516 15.7617 0 12.2363 0 7.88086C0 3.52539 3.53516 0 7.88086 0C12.2363 0 15.7715 3.52539 15.7715 7.88086ZM7.43533 0.543908C6.88363 0.655453 6.37093 0.975369 5.91943 1.46581C4.96508 1.75775 4.10144 2.25752 3.38426 2.91595C3.30999 2.87282 3.24554 2.82385 3.18359 2.77344C2.92969 2.57812 2.60742 2.54883 2.38281 2.76367C2.1582 2.97852 2.13867 3.33008 2.37305 3.55469C2.44508 3.62187 2.52267 3.68759 2.60691 3.75125C1.82188 4.74858 1.31712 5.97604 1.20547 7.31445L1.04492 7.31445C0.732422 7.31445 0.478516 7.56836 0.478516 7.88086C0.478516 8.19336 0.732422 8.44727 1.04492 8.44727L1.20546 8.44727C1.31805 9.79678 1.83028 11.0335 2.62682 12.035C2.53466 12.1031 2.45063 12.1737 2.37305 12.2461C2.13867 12.4707 2.1582 12.8223 2.38281 13.0371C2.60742 13.252 2.92969 13.2227 3.18359 13.0273C3.25304 12.9708 3.32562 12.9161 3.40854 12.8676C4.12115 13.5157 4.97668 14.0077 5.92097 14.2963C6.35665 14.7687 6.84882 15.083 7.377 15.2051C7.47201 15.3905 7.66666 15.5176 7.88086 15.5176C8.10212 15.5176 8.29401 15.3903 8.38668 15.2047C8.91472 15.0822 9.40731 14.768 9.84371 14.2958C10.7887 14.0068 11.6455 13.5145 12.3593 12.8661C12.4432 12.9151 12.5171 12.9703 12.5879 13.0273C12.832 13.2227 13.1641 13.252 13.3887 13.0371C13.6133 12.8223 13.6328 12.4707 13.3984 12.2461C13.3202 12.1731 13.2354 12.1019 13.1423 12.0332C13.9398 11.0321 14.4531 9.79599 14.5659 8.44727L14.9121 8.44727C15.2246 8.44727 15.4785 8.19336 15.4785 7.88086C15.4785 7.56836 15.2246 7.31445 14.9121 7.31445L14.5659 7.31445C14.454 5.97682 13.9482 4.75 13.1622 3.75297C13.2474 3.68878 13.3257 3.62248 13.3984 3.55469C13.6328 3.33008 13.6133 2.97852 13.3887 2.76367C13.1641 2.54883 12.832 2.57812 12.5879 2.77344C12.5247 2.82439 12.4589 2.87388 12.3836 2.91749C11.6652 2.25875 10.8004 1.75863 9.84524 1.46634C9.39342 0.976591 8.88082 0.65679 8.32987 0.544621C8.22675 0.409331 8.06385 0.322266 7.88086 0.322266C7.70389 0.322266 7.54028 0.409027 7.43533 0.543908Z" fill="black" fill-opacity="0.85"/>
  <path d="M7.31445 14.0443L7.31445 14.9512C7.31445 15.0397 7.33561 15.1235 7.3734 15.1979C6.26376 14.9451 5.31265 13.8452 4.70409 12.2321C5.04375 12.1128 5.41808 12.0186 5.82164 11.9486C6.21168 12.9781 6.73764 13.7389 7.31445 14.0443ZM11.0639 12.2325C10.4532 13.8445 9.49978 14.944 8.39024 15.1974C8.42698 15.1232 8.44727 15.0395 8.44727 14.9512L8.44727 14.0465C9.02834 13.742 9.5571 12.9804 9.9487 11.9492C10.3514 12.0193 10.7248 12.1134 11.0639 12.2325ZM5.48576 10.8777C5.09057 10.9556 4.7166 11.0536 4.36988 11.169C4.15398 10.3472 4.02108 9.42861 3.98876 8.44727L5.14024 8.44727C5.17564 9.30855 5.29811 10.1345 5.48576 10.8777ZM11.3997 11.1687C11.0536 11.0537 10.6801 10.9559 10.2853 10.8781C10.4733 10.1349 10.5958 9.30872 10.6312 8.44727L11.7826 8.44727C11.7502 9.42849 11.6166 10.347 11.3997 11.1687ZM5.47887 4.92173C5.29762 5.65414 5.17827 6.46609 5.14103 7.31445L3.98959 7.31445C4.02369 6.34708 4.15358 5.4414 4.36355 4.62972C4.71009 4.74533 5.08388 4.84355 5.47887 4.92173ZM11.7818 7.31445L10.6305 7.31445C10.5932 6.46592 10.4738 5.65382 10.2922 4.92131C10.6868 4.84326 11.0601 4.74529 11.4061 4.63002C11.617 5.44161 11.7475 6.3472 11.7818 7.31445ZM7.31445 0.888672L7.31445 1.71748C6.73178 2.02633 6.201 2.80076 5.80938 3.85034C5.40627 3.77953 5.03215 3.68475 4.6925 3.5651C5.31058 1.90155 6.2884 0.777802 7.43304 0.546921C7.35902 0.641623 7.31445 0.760195 7.31445 0.888672ZM11.0755 3.56469C10.7364 3.68414 10.3632 3.77885 9.96099 3.84976C9.56782 2.79841 9.03423 2.02325 8.44727 1.71535L8.44727 0.888672C8.44727 0.760631 8.40464 0.642427 8.33232 0.547894C9.47606 0.780102 10.4555 1.90307 11.0755 3.56469Z" fill="black" fill-opacity="0.85"/>
  <path d="M7.88086 15.5176C8.19336 15.5176 8.44727 15.2637 8.44727 14.9512L8.44727 0.888672C8.44727 0.576172 8.19336 0.322266 7.88086 0.322266C7.57812 0.322266 7.31445 0.576172 7.31445 0.888672L7.31445 14.9512C7.31445 15.2637 7.57812 15.5176 7.88086 15.5176ZM3.18359 13.0273C4.17969 12.2168 5.82031 11.7773 7.88086 11.7773C9.95117 11.7773 11.582 12.2168 12.5879 13.0273C12.832 13.2227 13.1641 13.252 13.3887 13.0371C13.6133 12.8223 13.6328 12.4707 13.3984 12.2461C12.3828 11.2988 10.2637 10.6445 7.88086 10.6445C5.50781 10.6445 3.38867 11.2988 2.37305 12.2461C2.13867 12.4707 2.1582 12.8223 2.38281 13.0371C2.60742 13.252 2.92969 13.2227 3.18359 13.0273ZM1.04492 8.44727L14.9121 8.44727C15.2246 8.44727 15.4785 8.19336 15.4785 7.88086C15.4785 7.56836 15.2246 7.31445 14.9121 7.31445L1.04492 7.31445C0.732422 7.31445 0.478516 7.56836 0.478516 7.88086C0.478516 8.19336 0.732422 8.44727 1.04492 8.44727ZM7.88086 5.15625C10.2637 5.15625 12.3828 4.50195 13.3984 3.55469C13.6328 3.33008 13.6133 2.97852 13.3887 2.76367C13.1641 2.54883 12.832 2.57812 12.5879 2.77344C11.582 3.58398 9.95117 4.02344 7.88086 4.02344C5.82031 4.02344 4.17969 3.58398 3.18359 2.77344C2.92969 2.57812 2.60742 2.54883 2.38281 2.76367C2.1582 2.97852 2.13867 3.33008 2.37305 3.55469C3.38867 4.50195 5.50781 5.15625 7.88086 5.15625Z" fill="black" fill-opacity="0.85"/>
 </g>
</svg>
