<?xml version="1.0" encoding="UTF-8"?>
<!--Generator: Apple Native CoreSVG 341-->
<!DOCTYPE svg
PUBLIC "-//W3C//DTD SVG 1.1//EN"
       "http://www.w3.org/Graphics/SVG/1.1/DTD/svg11.dtd">
<svg version="1.1" xmlns="http://www.w3.org/2000/svg" xmlns:xlink="http://www.w3.org/1999/xlink" viewBox="0 0 15.9375 11.3184">
 <g>
  <rect height="11.3184" opacity="0" width="15.9375" x="0" y="0"/>
  <path d="M4.45312 11.0254L14.8633 11.0254C15.2539 11.0254 15.5762 10.7129 15.5762 10.3223C15.5762 9.92188 15.2539 9.61914 14.8633 9.61914L4.45312 9.61914C4.0625 9.61914 3.75 9.92188 3.75 10.3223C3.75 10.7129 4.0625 11.0254 4.45312 11.0254Z" fill="black" fill-opacity="0.85"/>
  <path d="M0.996094 11.3184C1.54297 11.3184 1.99219 10.8691 1.99219 10.3223C1.99219 9.76562 1.54297 9.32617 0.996094 9.32617C0.449219 9.32617 0 9.76562 0 10.3223C0 10.8691 0.449219 11.3184 0.996094 11.3184Z" fill="black" fill-opacity="0.85"/>
  <path d="M4.45312 6.36719L14.8633 6.36719C15.2539 6.36719 15.5762 6.05469 15.5762 5.66406C15.5762 5.27344 15.2539 4.96094 14.8633 4.96094L4.45312 4.96094C4.0625 4.96094 3.75 5.27344 3.75 5.66406C3.75 6.05469 4.0625 6.36719 4.45312 6.36719Z" fill="black" fill-opacity="0.85"/>
  <path d="M0.996094 6.66016C1.54297 6.66016 1.99219 6.21094 1.99219 5.66406C1.99219 5.11719 1.54297 4.66797 0.996094 4.66797C0.449219 4.66797 0 5.11719 0 5.66406C0 6.21094 0.449219 6.66016 0.996094 6.66016Z" fill="black" fill-opacity="0.85"/>
  <path d="M4.45312 1.70898L14.8633 1.70898C15.2539 1.70898 15.5762 1.39648 15.5762 1.00586C15.5762 0.615234 15.2539 0.302734 14.8633 0.302734L4.45312 0.302734C4.0625 0.302734 3.75 0.615234 3.75 1.00586C3.75 1.39648 4.0625 1.70898 4.45312 1.70898Z" fill="black" fill-opacity="0.85"/>
  <path d="M0.996094 2.00195C1.54297 2.00195 1.99219 1.55273 1.99219 1.00586C1.99219 0.458984 1.54297 0.00976562 0.996094 0.00976562C0.449219 0.00976562 0 0.458984 0 1.00586C0 1.55273 0.449219 2.00195 0.996094 2.00195Z" fill="black" fill-opacity="0.85"/>
 </g>
</svg>
